<svg xmlns="http://www.w3.org/2000/svg" width="32" height="32"><path d="M30 15H17V2h-2v13H2v2h13v13h2V17h13v-2zM5 30a3 3 0 1 1 3-3 3.003 3.003 0 0 1-3 3zm0-4a1 1 0 1 0 1 1 1.001 1.001 0 0 0-1-1z"/><path d="M8 8a3 3 0 1 1 3-3 3.003 3.003 0 0 1-3 3zm0-4a1 1 0 1 0 1 1 1.001 1.001 0 0 0-1-1zm14 9a3 3 0 1 1 3-3 3.003 3.003 0 0 1-3 3zm0-4a1 1 0 1 0 1 1 1.001 1.001 0 0 0-1-1z"/><circle cx="11" cy="11" r="2"/><circle cx="11" cy="21" r="2"/><circle cx="21" cy="21" r="2"/><circle cx="22" cy="28" r="2"/><circle cx="28" cy="24" r="2"/><circle cx="4" cy="11" r="2"/><circle cx="28" cy="4" r="2"/><path fill="none" d="M0 0h32v32H0z" data-name="&lt;Transparent Rectangle&gt;"/></svg>